<svg id="Layer_2" data-name="Layer 2" xmlns="http://www.w3.org/2000/svg" xmlns:xlink="http://www.w3.org/1999/xlink" viewBox="0 0 152.53 152.53">
    <defs>
        <style>.cls-1{fill:#231f20;}.cls-2{fill:url(#radial-gradient);}</style>
        <radialGradient id="radial-gradient" cx="252.26" cy="252.39" r="74.26" gradientUnits="userSpaceOnUse">
            <stop offset="0" stop-color="#f7941d"/>
            <stop offset="0.2" stop-color="#f4701f"/>
            <stop offset="0.43" stop-color="#f14c21"/>
            <stop offset="0.65" stop-color="#ef3123"/>
            <stop offset="0.85" stop-color="#ed2224"/>
            <stop offset="1" stop-color="#ed1c24"/>
        </radialGradient>
    </defs>
    <path id="Cross" class="cls-1" d="M280.3,252.39,326.69,206a6.26,6.26,0,0,0,0-8.86L307.51,178a6.28,6.28,0,0,0-8.86,0l-46.39,46.39L205.87,178a6.28,6.28,0,0,0-8.86,0l-19.18,19.18a6.28,6.28,0,0,0,0,8.86l46.39,46.39-46.39,46.39a6.28,6.28,0,0,0,0,8.86L197,326.82a6.26,6.26,0,0,0,8.86,0l46.39-46.39,46.39,46.39a6.26,6.26,0,0,0,8.86,0l19.18-19.18a6.26,6.26,0,0,0,0-8.86Z" transform="translate(-176 -176.13)"/>
    <path class="cls-2" d="M303.08,326.66a4.24,4.24,0,0,1-3-1.25L252.26,277.6l-47.81,47.81a4.25,4.25,0,0,1-6,0l-19.19-19.19a4.26,4.26,0,0,1,0-6l47.81-47.81-47.81-47.81a4.26,4.26,0,0,1,0-6l19.19-19.19a4.26,4.26,0,0,1,6,0l47.81,47.8,47.81-47.81a4.26,4.26,0,0,1,6,0l19.19,19.18a4.26,4.26,0,0,1,0,6l-47.81,47.81,47.81,47.81a4.25,4.25,0,0,1,0,6l-19.19,19.19A4.24,4.24,0,0,1,303.08,326.66Z" transform="translate(-176 -176.13)"/>
</svg>